<svg width="1920" height="138" viewBox="0 0 1920 138" fill="none" xmlns="http://www.w3.org/2000/svg">
<path d="M213.992 118.131C142.661 91.6381 71.3307 91.6381 0 118.131V0H1925.93V118.131C1854.6 91.6381 1783.27 91.6381 1711.94 118.131C1640.61 144.623 1569.27 144.623 1497.94 118.131C1426.61 91.6381 1355.28 91.6381 1283.95 118.131C1212.62 144.623 1141.29 144.623 1069.96 118.131C998.629 91.6381 927.299 91.6381 855.968 118.131C784.637 144.623 713.307 144.623 641.976 118.131C570.645 91.6381 499.315 91.6381 427.984 118.131C356.653 144.623 285.323 144.623 213.992 118.131Z" fill="#99BAC1" fill-opacity="0.8"/>
</svg>
