<svg width="49" height="54" viewBox="0 0 49 54" fill="none" xmlns="http://www.w3.org/2000/svg">
<mask id="mask0" mask-type="alpha" maskUnits="userSpaceOnUse" x="0" y="0" width="49" height="54">
<g clip-path="url(#clip0)">
<path d="M13.9279 11.863C18.7943 9.65112 22.4302 5.47866 23.7167 0.702965C23.3251 0.652695 22.9895 0.602424 22.598 0.552154C23.2133 5.12677 26.961 9.09814 31.9393 10.3046C31.8834 10.003 31.8275 9.70139 31.8275 9.39976C27.0729 12.3657 24.0523 17.1414 23.6608 22.269C24.0523 22.2187 24.3879 22.1685 24.7795 22.1182C23.493 17.3928 20.1368 13.0695 14.9347 11.2598C14.5991 11.1592 14.2075 11.0084 13.816 10.9581C13.0888 10.8073 12.8091 11.8127 13.5363 11.9133C16.7806 12.5668 19.7452 14.9295 21.4233 17.3928C22.4861 18.9512 23.2133 20.6101 23.6608 22.4198C23.8286 22.9728 24.7236 22.822 24.7795 22.269C25.1151 17.4933 27.9679 13.0192 32.3309 10.3046C32.7224 10.0533 32.6665 9.50031 32.219 9.39976C27.7441 8.34408 24.2761 4.72461 23.7167 0.602424C23.6608 0.099719 22.7658 -0.151634 22.598 0.451613C21.4233 4.97596 17.9553 8.89706 13.3685 11.0084C12.7532 11.31 13.3126 12.1646 13.9279 11.863Z" fill="white"/>
<path d="M32.8346 32.6756C34.6805 34.4351 36.1348 36.3956 37.1417 38.6578C37.3095 39.1102 38.0926 39.1605 38.2045 38.6578C39.2113 35.1891 40.4419 30.2123 44.749 29.0058C45.2524 28.855 45.3084 28.1512 44.749 28.0507C42.7912 27.7491 40.7775 27.2464 39.1554 26.1404C37.5332 25.0345 36.5264 23.4258 35.7433 21.7669C35.5195 21.2642 34.7364 21.5658 34.6805 22.0182C34.5686 23.7274 33.7296 25.3361 32.6668 26.6934C31.604 28.0507 30.1497 29.3577 28.3597 29.7599C27.6885 29.9107 27.9122 30.6648 28.5275 30.7653C28.2478 30.715 28.7513 30.8156 28.8631 30.8156C29.2547 30.8659 29.6462 30.9664 29.9819 31.1172C31.0446 31.4188 32.0515 31.9215 32.8346 32.6756C33.338 33.128 34.1211 32.4242 33.6177 31.9718C32.2752 30.7653 30.3734 29.961 28.4716 29.7599C28.5275 30.1118 28.5834 30.4134 28.6394 30.7653C30.709 30.2626 32.3312 28.855 33.5058 27.3972C34.7364 25.8388 35.6873 23.9788 35.7992 22.0182C35.4636 22.1188 35.128 22.169 34.7364 22.2696C35.5755 24.0291 36.6942 25.7383 38.4282 26.9447C40.1622 28.1512 42.2878 28.7042 44.4134 29.0058C44.4134 28.7042 44.4134 28.3523 44.4134 28.0507C39.7148 29.408 38.2604 34.4853 37.1417 38.3562C37.4773 38.3562 37.8689 38.3562 38.2045 38.3562C37.1417 35.9432 35.6314 33.8318 33.6177 31.9718C33.1702 31.5194 32.3871 32.2232 32.8346 32.6756Z" fill="white"/>
<path d="M2.40359 41.9254C4.97666 42.9308 7.60566 40.7189 9.28375 39.2108C11.5771 37.0994 13.7586 34.5859 14.5977 31.6702C14.2621 31.6702 13.8705 31.6702 13.5349 31.6702C14.3739 34.3345 15.7724 36.9989 18.2895 38.7081C20.5269 40.2162 23.8272 40.8194 26.4562 39.8643C26.2884 39.5627 26.1206 39.3113 25.8968 39.0097C20.6947 42.6292 15.2689 47.3546 13.7586 53.2865C14.0943 53.2363 14.4299 53.186 14.7655 53.186C13.0874 50.0692 12.2484 46.2487 9.17188 43.9865C7.32598 42.6292 5.08853 41.6238 2.79515 41.0205C2.12391 40.8194 1.78829 41.8248 2.51547 41.9757C4.64104 42.5789 6.82256 43.4838 8.50064 44.7908C9.78718 45.7459 10.6262 47.0027 11.2975 48.4103C12.1365 50.1698 12.8637 51.9795 13.8146 53.6887C14.0383 54.0909 14.7096 53.9903 14.8214 53.5881C16.3317 47.7568 21.6457 43.2324 26.6799 39.7135C27.1274 39.4119 26.624 38.7081 26.1206 38.8589C23.7153 39.7638 20.8066 39.2108 18.7929 37.8032C16.5555 36.2448 15.3249 33.7816 14.5977 31.4188C14.4299 30.9664 13.6468 30.9161 13.5349 31.4188C12.8077 33.9826 10.9059 36.1945 8.8922 38.1551C8.05315 39.0097 7.10224 39.814 6.03945 40.4173C5.2004 40.92 3.96981 41.5232 2.96296 41.1211C2.29172 40.8194 1.73236 41.674 2.40359 41.9254Z" fill="white"/>
<path d="M3.18782 19.6056C2.90814 22.0186 3.13189 24.4316 3.85906 26.744C4.0828 27.3473 5.14559 27.0959 4.92185 26.4927C4.25061 24.2305 4.02687 21.9181 4.30655 19.6056C4.36248 19.3543 4.02687 19.1029 3.74719 19.1029C3.41157 19.1029 3.24376 19.304 3.18782 19.6056Z" fill="white"/>
<path d="M0.55905 24.2804C3.02025 24.1799 5.48144 23.7274 7.77483 22.9231C8.05451 22.8226 8.27825 22.5712 8.16638 22.3199C8.11045 22.0685 7.77483 21.8674 7.49515 21.968C5.2577 22.722 2.90837 23.1745 0.55905 23.275C-0.168121 23.275 -0.168121 24.2804 0.55905 24.2804Z" fill="white"/>
<path d="M44.8604 36.5968C45.1401 37.9541 45.4198 39.3616 45.6435 40.719C45.6995 40.9703 46.0351 41.1211 46.3148 41.0708C46.6504 40.9703 46.7622 40.719 46.7063 40.4676C46.4266 39.1103 46.1469 37.7027 45.9232 36.3454C45.8673 36.0941 45.5317 35.9432 45.252 35.9935C44.9164 36.0438 44.8045 36.2951 44.8604 36.5968Z" fill="white"/>
<path d="M43.7968 39.2108C45.1952 39.2108 46.5936 39.06 47.936 38.7584C48.2157 38.7081 48.3835 38.4065 48.3276 38.1551C48.2717 37.9038 47.936 37.7529 47.6564 37.8032C46.4258 38.1048 45.1392 38.2054 43.8527 38.2054C43.573 38.2054 43.2933 38.4567 43.2933 38.7081C43.2374 39.0097 43.5171 39.2108 43.7968 39.2108Z" fill="white"/>
<path d="M36.8608 13.1708C36.5252 13.8243 36.637 14.5281 37.1405 15.081C37.6439 15.634 38.427 15.9356 39.2101 15.7346C39.9373 15.5335 40.5526 14.9805 40.7204 14.2767C40.8882 13.5729 40.5526 12.8691 39.8813 12.467C39.2101 12.0648 38.2592 12.0145 37.588 12.3664C37.3642 12.5172 37.1964 12.8189 37.3642 13.0702C37.532 13.2713 37.8676 13.4221 38.1473 13.2713C38.2033 13.221 38.2592 13.221 38.3151 13.221C38.427 13.1708 38.2033 13.2713 38.3151 13.221H38.3711H38.427C38.427 13.221 38.5389 13.221 38.427 13.221C38.3151 13.221 38.427 13.221 38.427 13.221C38.4829 13.221 38.4829 13.221 38.5389 13.221C38.5948 13.221 38.6507 13.221 38.7067 13.221C38.8186 13.221 38.5948 13.1708 38.7067 13.221H38.7626C38.8186 13.221 38.8745 13.2713 38.9304 13.2713L38.9864 13.3216C38.9304 13.2713 38.8745 13.2713 38.9304 13.3216C38.9304 13.3216 38.9304 13.3216 38.9864 13.3216C39.0423 13.3216 39.0982 13.3718 39.1542 13.3718C39.2101 13.3718 39.2101 13.4221 39.266 13.4221C39.3779 13.4724 39.2101 13.3718 39.266 13.4221C39.322 13.4724 39.3779 13.4724 39.3779 13.5226L39.4339 13.5729C39.4898 13.6232 39.3779 13.4724 39.4339 13.5729C39.4898 13.6232 39.4898 13.6735 39.5457 13.7237C39.5457 13.7237 39.5457 13.7237 39.5457 13.774C39.5457 13.8243 39.5457 13.8243 39.5457 13.7237C39.5457 13.7237 39.5457 13.774 39.6017 13.774C39.6017 13.8243 39.6576 13.8745 39.6576 13.9248C39.6576 13.9751 39.6576 13.774 39.6576 13.9248C39.6576 13.9751 39.6576 13.9751 39.6576 14.0254V14.1259C39.6576 14.1259 39.7135 14.0254 39.6576 14.1259C39.6576 14.1762 39.6017 14.2264 39.6017 14.2767C39.6017 14.2767 39.6017 14.327 39.5457 14.3772C39.6017 14.327 39.6017 14.2767 39.5457 14.3772C39.4898 14.4275 39.4898 14.4778 39.4339 14.5281C39.4339 14.5281 39.4339 14.5281 39.4339 14.5783C39.3779 14.6286 39.3779 14.6286 39.4339 14.5783L39.3779 14.6286C39.322 14.6789 39.266 14.7291 39.266 14.7291L39.2101 14.7794C39.322 14.7291 39.266 14.7291 39.2101 14.7794C39.1542 14.8297 39.0982 14.8297 39.0423 14.88C39.0423 14.88 39.0423 14.88 38.9864 14.88C38.9304 14.88 38.9304 14.88 39.0423 14.88C39.0423 14.88 38.9864 14.88 38.9304 14.9302C38.8745 14.9302 38.8745 14.9302 38.8186 14.9302C38.8186 14.9302 38.8186 14.9302 38.7626 14.9302C38.7067 14.9302 38.7067 14.9302 38.7626 14.9302C38.7626 14.9302 38.7626 14.9302 38.8186 14.9302H38.7626C38.7067 14.9302 38.7067 14.9302 38.6507 14.9302H38.5389C38.6507 14.9302 38.6507 14.9302 38.5948 14.9302H38.5389C38.4829 14.9302 38.427 14.88 38.3711 14.88C38.3151 14.88 38.4829 14.9302 38.3711 14.88C38.3711 14.88 38.3151 14.88 38.3151 14.8297C38.2592 14.7794 38.2033 14.7794 38.1473 14.7291C38.0914 14.6789 38.2592 14.8297 38.1473 14.7291C38.0914 14.6789 38.0914 14.6789 38.0354 14.6789L37.9236 14.5281L37.9795 14.5783C37.9795 14.5783 37.9795 14.5281 37.9236 14.5281C37.9236 14.4778 37.8676 14.4778 37.8676 14.4275C37.8676 14.3772 37.8117 14.3772 37.8117 14.327C37.8117 14.327 37.8117 14.327 37.8117 14.2767C37.8117 14.2264 37.8117 14.2264 37.8117 14.327C37.8117 14.327 37.7558 14.1762 37.7558 14.1259C37.7558 14.0756 37.7558 14.0756 37.7558 14.0254C37.6998 13.9248 37.7558 14.1259 37.7558 14.0254C37.7558 13.9751 37.7558 13.9248 37.7558 13.8243V13.774C37.7558 13.8745 37.7558 13.8745 37.7558 13.8243V13.774C37.7558 13.7237 37.8676 13.5226 37.7558 13.6735C37.8676 13.4221 37.8676 13.1205 37.532 12.9697C37.4201 12.8691 37.0286 12.8691 36.8608 13.1708Z" fill="white"/>
<path d="M19.2416 29.8605C19.1297 30.0113 19.0178 30.1118 18.9619 30.3129C18.9059 30.514 18.9059 30.6648 18.9619 30.8156C19.0178 31.0669 19.1856 31.3183 19.4094 31.5194C19.9687 31.9718 20.8637 31.9215 21.4231 31.5194C21.9824 31.1675 22.318 30.6145 22.318 30.0113C22.318 29.7096 22.2062 29.408 22.0384 29.2069C21.8146 28.9556 21.5909 28.8048 21.2553 28.654C20.64 28.4529 19.8569 28.654 19.4653 29.1567C19.2975 29.408 19.4094 29.7096 19.689 29.8605C19.9687 30.0113 20.3043 29.9107 20.4722 29.6594C20.4722 29.6594 20.4722 29.6091 20.5281 29.6091C20.4722 29.7096 20.4722 29.7096 20.4722 29.6594C20.4722 29.6594 20.4722 29.6091 20.5281 29.6091C20.584 29.5588 20.64 29.5588 20.4722 29.6594C20.5281 29.6594 20.5281 29.6091 20.584 29.6091H20.64C20.4722 29.7096 20.584 29.6594 20.64 29.6091C20.6959 29.6091 20.6959 29.6091 20.7518 29.6091C20.8637 29.6091 20.64 29.6091 20.6959 29.6091H20.7518C20.8078 29.6091 20.8078 29.6091 20.8637 29.6091C20.9196 29.6091 20.9756 29.6594 20.8078 29.6091H20.8637C20.9196 29.6091 20.9196 29.6091 20.9756 29.6594C21.0315 29.6594 21.0875 29.7096 20.9196 29.6594H20.9756C21.0315 29.6594 21.0315 29.7096 21.0874 29.7096C21.1434 29.7096 21.1434 29.7599 21.0315 29.6594L21.0874 29.7096C21.0874 29.7096 21.0874 29.7599 21.1434 29.7599C21.1993 29.8102 21.0874 29.6594 21.1434 29.7096C21.1434 29.7599 21.1993 29.7599 21.1993 29.8102V29.8605C21.1434 29.7599 21.1434 29.8102 21.1993 29.8102C21.1993 29.8605 21.1993 29.9107 21.2553 29.961C21.1993 29.8605 21.2553 29.8605 21.2553 29.9107V29.961C21.2553 30.0113 21.2553 30.0615 21.2553 30.1118C21.2553 30.1621 21.1993 30.2123 21.2553 30.0615V30.1118C21.2553 30.1621 21.2553 30.2123 21.1993 30.2626C21.1993 30.2626 21.1993 30.3129 21.1434 30.3129C21.0874 30.4134 21.1993 30.2123 21.1434 30.2626C21.1434 30.3129 21.0874 30.3632 21.0874 30.4134C21.0874 30.4637 21.0315 30.4637 21.0315 30.514C21.0874 30.4134 21.0874 30.4637 21.0874 30.4637C21.0874 30.514 21.0315 30.514 21.0315 30.5642C20.9756 30.6145 20.9756 30.6145 20.9196 30.6648C20.8637 30.715 21.0315 30.6145 20.9196 30.6648L20.8637 30.715C20.8078 30.7653 20.7518 30.7653 20.7518 30.7653C20.6959 30.7653 20.64 30.8156 20.7518 30.7653C20.6959 30.7653 20.6959 30.7653 20.64 30.8156C20.584 30.8156 20.5281 30.8156 20.4722 30.8659C20.3603 30.8659 20.64 30.8659 20.4722 30.8659H20.4162H20.3603C20.2484 30.8659 20.4722 30.8659 20.4162 30.8659C20.3603 30.8659 20.3043 30.8156 20.2484 30.8156C20.1925 30.8156 20.3603 30.8659 20.3043 30.8156L20.2484 30.7653C20.1925 30.715 20.3603 30.8659 20.3043 30.8156L20.2484 30.7653C20.1925 30.715 20.1925 30.6648 20.3043 30.8156L20.2484 30.7653C20.2484 30.7653 20.2484 30.715 20.1925 30.715C20.1365 30.6145 20.1925 30.7653 20.1925 30.715V30.6648C20.1925 30.6648 20.1925 30.5642 20.1925 30.6648C20.1925 30.7653 20.1925 30.6648 20.1925 30.6648C20.1925 30.6145 20.1925 30.6145 20.1925 30.5642C20.1925 30.514 20.1365 30.715 20.1925 30.6145V30.5642C20.1925 30.514 20.1365 30.6648 20.1925 30.6145C20.1925 30.5642 20.3043 30.514 20.1925 30.6145C20.3043 30.514 20.3603 30.4134 20.3603 30.2626C20.3603 30.1621 20.3043 30.0113 20.1925 29.9107C19.8569 29.7096 19.4094 29.6594 19.2416 29.8605Z" fill="white"/>
<path d="M29.703 49.6669C30.1505 50.622 31.2692 51.2755 32.4439 51.4263C33.6186 51.5771 34.7373 51.0242 35.3526 50.1696C35.9679 49.315 36.0798 48.1587 35.4645 47.3042C34.9051 46.4496 33.7864 45.8966 32.6676 45.9971C31.1574 46.0977 30.2624 47.1533 29.5912 48.2593C29.2555 48.8123 30.2065 49.315 30.5421 48.762C30.9896 48.0582 31.493 47.2539 32.388 47.0528C32.7236 46.9523 33.0592 47.0025 33.4508 47.1031C33.7864 47.2036 34.122 47.4047 34.3457 47.656C34.7932 48.1588 34.8492 48.8625 34.5135 49.4658C34.1779 50.1193 33.5067 50.5215 32.7236 50.5215C31.8286 50.5215 30.9896 50.0188 30.6539 49.2647C30.5421 49.0133 30.1505 48.9631 29.8708 49.0636C29.6471 49.1139 29.5912 49.4155 29.703 49.6669Z" fill="white"/>
</g>
</mask>
<g mask="url(#mask0)">
<rect x="-15.0635" y="-18.0446" width="74.6902" height="96.6578" fill="#436169"/>
</g>
<defs>
<clipPath id="clip0">
<rect width="48.3289" height="53.9403" fill="white"/>
</clipPath>
</defs>
</svg>
